# xmcd CD database file
#
# Track frame offsets:
#	150
#	28842
#	45927
#	60514
#	75120
#	98417
#	111275
#	133302
#	145072
#	166672
#
# Disc length: 3102 seconds
#
# Revision: 2
# Processed by: cddbd v1.5.2PL0 Copyright (c) Steve Scherf et al.
# Submitted via: CDex 1.72
#
DISCID=700c1c0a
DTITLE=Welch, Gillian (USA-01-Time-The Revelator-alt.cty) - Time (The Revelator)
DYEAR=2001
DGENRE=alt country
TTITLE0=Revelator
TTITLE1=My First Lover
TTITLE2=Dear Someone
TTITLE3=Red Clay Halo
TTITLE4=April the 14th Part 1
TTITLE5=I Want to Sing That Rock and Roll
TTITLE6=Elvis Presley Blues
TTITLE7=Ruination Day Part 2
TTITLE8=Everything Is Free
TTITLE9=I Dream a Highway
EXTD=YEAR: 2001
EXTT0=
EXTT1=
EXTT2=
EXTT3=
EXTT4=
EXTT5=
EXTT6=
EXTT7=
EXTT8=
EXTT9=
PLAYORDER=
